<svg width="60" height="60" viewBox="0 0 60 60" xmlns="http://www.w3.org/2000/svg"><g fill="none" fill-rule="evenodd"><g fill="#ffffff" fill-opacity="0.1"><path d="M36 34v-8h8v8h-8zm0-8V18h8v8h-8zm-8-8V10h8v8h-8zm0 0v8H40V26H26V18h8zm-8-8v8h-8V10h8zm8 0v8H26V10h8zM26 34v8h8v8h-8v-8H18v8h8V34H26zM8 34v-8h8v8H8zm0-8V18h8v8h-8zm-8-8V10h8v8H0V18zm8 0v8H0V18h8zm8 0v8H8V18h8zm8 0V18H18v8h8zm8 8V26H18v8h8zm8 0V26H26v8h8zm8 0V26H34v8h8zm0 0V26H42v8h8zm8 0V26H40v8h8zm0-8V18H40v8h8zm0 0V18H42v8h8zm-8-8V10H40v8h8zm8 0V10H42v8h8zm8 0V10H40v8v18h8zM8 26v-8H0v8h8zm0 8V26H0v8h8zm0 8V34H0v8h8zm8 0v-8H8v8H18v8h8v-8H26zm-8-8V34H8v8h8zm-8-8V26H0v8h8z" /></g></g></svg>
